<?xml version="1.0" encoding="UTF-8"?>
<svg width="24px" height="24px" viewBox="0 0 24 24" version="1.1" xmlns="http://www.w3.org/2000/svg">
    <g stroke="none" stroke-width="1" fill="none" fill-rule="evenodd">
        <path d="M12,2 C15.3137085,2 18,4.6862915 18,8 C18,11.3137085 12,20 12,20 C12,20 6,11.3137085 6,8 C6,4.6862915 8.6862915,2 12,2 Z" fill="#f39c12" stroke="#ffffff" stroke-width="1.5"></path>
        <path d="M9,7 L15,7 C15.5522847,7 16,7.44771525 16,8 L16,10 C16,10.5522847 15.5522847,11 15,11 L9,11 C8.44771525,11 8,10.5522847 8,10 L8,8 C8,7.44771525 8.44771525,7 9,7 Z" fill="#ffffff"></path>
    </g>
</svg>
